<svg viewBox="0 0 27 43" fill="none" xmlns="http://www.w3.org/2000/svg">
<path d="M21.8411 32.5506C22.4187 33.2864 22.5941 34.4578 21.8121 35.2733C21.6712 35.4202 21.5032 35.5505 21.3124 35.66C18.7812 37.1264 16.435 38.3202 14.1415 39.3088C12.9609 39.8181 11.8788 39.2464 11.3291 38.4551C10.7704 37.6509 10.7896 36.6975 11.3782 36.0836C11.3782 36.0836 11.3782 36.0836 11.3787 36.0831C11.5572 35.897 11.786 35.7439 12.0562 35.6267C14.3192 34.6519 16.6398 33.4704 19.1522 32.0156C20.2299 31.3921 21.2797 31.8347 21.8411 32.5506Z" fill="white"/>
<path d="M24.2865 10.1895C23.871 10.6227 23.3251 10.8676 22.7895 10.8609C22.2755 10.8539 21.7957 10.6244 21.4043 10.1956C19.6622 8.28705 17.9207 6.37761 16.1878 4.46231C15.2928 3.47198 15.5546 2.19424 16.276 1.44195C16.6919 1.00823 17.2379 0.764302 17.7726 0.772116C18.2859 0.779692 18.7641 1.01109 19.1533 1.44195C20.8868 3.35773 22.6275 5.26493 24.3696 7.17347C25.2694 8.159 25.0085 9.43662 24.2865 10.1895Z" fill="white"/>
<path d="M20.6534 22.0804C20.1536 22.6016 19.4713 22.8047 18.7307 22.6537C13.3549 21.5552 7.99092 20.542 2.51213 19.5142C1.75354 19.3718 1.21687 18.9209 0.999008 18.244C0.755346 17.4864 0.976836 16.5774 1.54939 15.9804C2.0477 15.4608 2.72813 15.2504 3.46527 15.3885C8.93164 16.4131 14.2859 17.4242 19.6945 18.5304C20.4509 18.6843 20.987 19.1478 21.2008 19.832C21.4368 20.5883 21.2164 21.4933 20.6534 22.0804Z" fill="white"/>
</svg>
