<svg viewBox="0 0 27 43" fill="none" xmlns="http://www.w3.org/2000/svg">
<path d="M4.36058 32.5506C3.78294 33.2864 3.60755 34.4578 4.3896 35.2733C4.53041 35.4202 4.69842 35.5505 4.88922 35.66C7.42046 37.1264 9.76666 38.3202 12.0601 39.3088C13.2407 39.8181 14.3229 39.2464 14.8725 38.4551C15.4312 37.6509 15.4121 36.6975 14.8234 36.0836C14.8234 36.0836 14.8234 36.0836 14.8229 36.0831C14.6444 35.897 14.4156 35.7439 14.1454 35.6267C11.8824 34.6519 9.56186 33.4704 7.0495 32.0156C5.97174 31.3921 4.92192 31.8347 4.36058 32.5506Z" fill="white"/>
<path d="M1.91518 10.1895C2.33062 10.6227 2.87654 10.8676 3.41214 10.8609C3.92619 10.8539 4.40598 10.6244 4.79733 10.1956C6.53946 8.28705 8.28093 6.37761 10.0139 4.46231C10.9089 3.47198 10.6471 2.19424 9.92564 1.44195C9.50973 1.00823 8.96379 0.764302 8.42904 0.772116C7.91577 0.779692 7.4376 1.01109 7.04837 1.44195C5.3149 3.35773 3.57416 5.26493 1.83203 7.17347C0.932274 8.159 1.19318 9.43662 1.91518 10.1895Z" fill="white"/>
<path d="M5.54831 22.0804C6.04806 22.6016 6.73041 22.8047 7.47095 22.6537C12.8467 21.5552 18.2107 20.542 23.6895 19.5142C24.4481 19.3718 24.9848 18.9209 25.2026 18.244C25.4463 17.4864 25.2248 16.5774 24.6523 15.9804C24.154 15.4608 23.4735 15.2504 22.7364 15.3885C17.27 16.4131 11.9158 17.4242 6.50718 18.5304C5.7508 18.6843 5.21465 19.1477 5.00085 19.832C4.76486 20.5883 4.98526 21.4933 5.54831 22.0804Z" fill="white"/>
</svg>
